<svg xmlns="http://www.w3.org/2000/svg" xmlns:xlink="http://www.w3.org/1999/xlink" x="0px" y="0px" viewBox="0 0 1920 667" style="enable-background:new 0 0 1920 667;" xml:space="preserve">
<style type="text/css">
	.st0{fill:#E6E6E6;}
	.st1{fill:#BDCCD4;}
	.st2{fill:#F7931E;}
	.st3{fill:#F15A24;}
</style>
<g id="Capa_1">
</g>
<g id="Capa_5">
	<g>
		<path class="st0" d="M20,567.9c0,32.3,26.2,58.5,58.5,58.5h311.8c32.3,0,58.5-26.2,58.5-58.5V139.2c0-10.8-8.7-19.5-19.5-19.5    c-10.8,0-19.5,8.7-19.5,19.5c0,32.3-26.2,58.5-58.5,58.5H39.5c-10.8,0-19.5,8.7-19.5,19.5V567.9z"></path>
		<path class="st1" d="M39.5,197.7h194.9v428.7H78.5c-32.3,0-58.5-26.2-58.5-58.5V217.2C20,206.4,28.7,197.7,39.5,197.7z"></path>
		<path class="st2" d="M20,236.7h331.3c3.4,0,6.8-0.1,10.2-0.5c53.5-5.4,92.6-53.1,87.2-106.7c-6.6-50.9-50.4-88.7-101.7-87.7H78.5    C46.2,41.8,20,68,20,100.3V236.7z"></path>
		<path class="st3" d="M78.5,41.8h155.9v194.9H20V100.3C20,68,46.2,41.8,78.5,41.8z"></path>
	</g>
	<g>
		<path d="M571.5,348.8c0-122.6,76.8-213.7,197.7-213.7s197.1,91.1,197.1,213.7S890,561.9,769.1,561.9S571.5,471.4,571.5,348.8z     M881.4,348.8c0-81.9-36.7-145.5-111.7-145.5s-113.4,63.6-113.4,145.5c0,81.4,38.4,144.9,113.4,144.9S881.4,430.1,881.4,348.8z"></path>
		<path d="M1005.1,258.8h75.1v36.7h1.7c18.9-25.8,46.4-44.7,86.5-44.7c77.9,0,127.8,63.6,127.8,155.3c0,95.1-51.6,155.3-127.2,155.3    c-41.2,0-68.2-16.6-84.8-41.8h-1.1V649h-77.9V258.8z M1217.1,408.4c0-55.6-19.5-94.5-67.6-94.5c-48.7,0-68.2,41.8-68.2,94.5    c0,53.3,24.6,88.2,71,88.2C1191.9,496.6,1217.1,463.9,1217.1,408.4z"></path>
		<path d="M1517.9,552.7v-34.4h-1.7c-20.1,26.9-43,42.4-84.2,42.4c-65.3,0-102-41.8-102-106V258.8h77.3v182.8    c0,34.4,15.5,53.3,48.7,53.3c36.7,0,59-27.5,59-66.5V258.8h77.9v293.9H1517.9z"></path>
		<path d="M1625,457.6h72.2c5.2,33.8,29.2,48.7,64.2,48.7c34.4,0,53.9-13.2,53.9-33.8c0-28.1-37.2-30.9-77.3-39    c-52.7-10.3-104.3-24.6-104.3-88.8c0-63.6,52.7-94,119.7-94c77.3,0,120.3,38.4,126,97.4h-70.5c-3.4-31.5-23.5-43-56.7-43    c-30.4,0-50.4,11.5-50.4,32.7c0,25.2,39,27.5,80.8,36.1c49.3,10.3,103.7,24.1,103.7,92.8c0,59-50.4,94.5-123.7,94.5    C1677.2,561.3,1629.6,520.1,1625,457.6z"></path>
	</g>
</g>
<g id="Capa_2">
</g>
</svg>